<svg width="93" height="98" viewBox="0 0 93 98" fill="none" xmlns="http://www.w3.org/2000/svg">
<rect width="93" height="98" rx="10" fill="#4E41F0"/>
<path d="M27.5703 22.8125H46.6602C50.5742 22.8125 53.9375 23.3984 56.75 24.5703C59.5859 25.7422 61.7656 27.4766 63.2891 29.7734C64.8125 32.0703 65.5742 34.8945 65.5742 38.2461C65.5742 40.9883 65.1055 43.3438 64.168 45.3125C63.2539 47.2578 61.9531 48.8867 60.2656 50.1992C58.6016 51.4883 56.6445 52.5195 54.3945 53.293L51.0547 55.0508H34.4609L34.3906 46.8242H46.7305C48.582 46.8242 50.1172 46.4961 51.3359 45.8398C52.5547 45.1836 53.4688 44.2695 54.0781 43.0977C54.7109 41.9258 55.0273 40.5664 55.0273 39.0195C55.0273 37.3789 54.7227 35.9609 54.1133 34.7656C53.5039 33.5703 52.5781 32.6562 51.3359 32.0234C50.0938 31.3906 48.5352 31.0742 46.6602 31.0742H38.1172V74H27.5703V22.8125ZM56.1875 74L44.5156 51.1836L55.6602 51.1133L67.4727 73.5078V74H56.1875Z" fill="#958DF6"/>
</svg>
