<svg width="107" height="137" viewBox="0 0 107 137" fill="none" xmlns="http://www.w3.org/2000/svg">
<path d="M64.5734 0H17.7083C13.0118 0 8.50761 1.79607 5.18665 4.9931C1.86569 8.19012 0 12.5262 0 17.0475V119.333C0 123.854 1.86569 128.19 5.18665 131.387C8.50761 134.584 13.0118 136.38 17.7083 136.38H88.5417C93.2382 136.38 97.7424 134.584 101.063 131.387C104.384 128.19 106.25 123.854 106.25 119.333V40.1213C106.249 37.8608 105.316 35.6931 103.656 34.095L70.8333 2.49746C69.1732 0.898835 66.9215 0.000482763 64.5734 0ZM66.4062 29.8331V12.7856L92.9688 38.3569H75.2604C72.9121 38.3569 70.6601 37.4588 68.9996 35.8603C67.3391 34.2618 66.4062 32.0938 66.4062 29.8331ZM38.551 83.993C38.1394 84.3893 37.6508 84.7036 37.113 84.9181C36.5752 85.1325 35.9988 85.2429 35.4167 85.2429C34.8346 85.2429 34.2582 85.1325 33.7204 84.9181C33.1826 84.7036 32.6939 84.3893 32.2823 83.993C31.8707 83.5968 31.5442 83.1264 31.3214 82.6086C31.0986 82.0909 30.984 81.536 30.984 80.9756C30.984 80.4152 31.0986 79.8603 31.3214 79.3426C31.5442 78.8249 31.8707 78.3545 32.2823 77.9582L49.9906 60.9107C50.4019 60.5138 50.8904 60.1989 51.4282 59.9841C51.9661 59.7692 52.5427 59.6586 53.125 59.6586C53.7073 59.6586 54.2839 59.7692 54.8218 59.9841C55.3596 60.1989 55.8481 60.5138 56.2594 60.9107L73.9677 77.9582C74.3793 78.3545 74.7058 78.8249 74.9286 79.3426C75.1514 79.8603 75.266 80.4152 75.266 80.9756C75.266 81.536 75.1514 82.0909 74.9286 82.6086C74.7058 83.1264 74.3793 83.5968 73.9677 83.993C73.5561 84.3893 73.0674 84.7036 72.5296 84.9181C71.9919 85.1325 71.4154 85.2429 70.8333 85.2429C70.2512 85.2429 69.6748 85.1325 69.137 84.9181C68.5992 84.7036 68.1106 84.3893 67.699 83.993L57.5521 74.2163V106.547C57.5521 107.677 57.0857 108.761 56.2554 109.56C55.4252 110.36 54.2991 110.809 53.125 110.809C51.9509 110.809 50.8248 110.36 49.9946 109.56C49.1643 108.761 48.6979 107.677 48.6979 106.547V74.2163L38.551 83.993Z" fill="white"/>
</svg>
