<svg width="107" height="137" viewBox="0 0 107 137" fill="none" xmlns="http://www.w3.org/2000/svg">
<path d="M104.831 34.2015C105.737 35.1148 106.25 36.3477 106.25 37.6415V131.509C106.25 134.203 104.092 136.38 101.42 136.38H4.82955C2.1582 136.38 0 134.203 0 131.509V4.87071C0 2.1766 2.1582 0 4.82955 0H68.9267C70.2095 0 71.4471 0.517514 72.3526 1.43077L104.831 34.2015ZM95.1119 39.879L66.7081 11.2331V39.879H95.1119ZM53.125 109.591C54.7261 109.591 56.2616 108.95 57.3938 107.808C58.5259 106.666 59.1619 105.117 59.1619 103.503C59.1619 101.888 58.5259 100.339 57.3938 99.1975C56.2616 98.0557 54.7261 97.4143 53.125 97.4143C51.5239 97.4143 49.9884 98.0557 48.8562 99.1975C47.7241 100.339 47.0881 101.888 47.0881 103.503C47.0881 105.117 47.7241 106.666 48.8562 107.808C49.9884 108.95 51.5239 109.591 53.125 109.591ZM57.9545 86.4552V58.4486C57.9545 58.1256 57.8273 57.8159 57.6009 57.5875C57.3745 57.3592 57.0674 57.2309 56.7472 57.2309H49.5028C49.1826 57.2309 48.8755 57.3592 48.6491 57.5875C48.4227 57.8159 48.2955 58.1256 48.2955 58.4486V86.4552C48.2955 86.7781 48.4227 87.0879 48.6491 87.3162C48.8755 87.5446 49.1826 87.6729 49.5028 87.6729H56.7472C57.0674 87.6729 57.3745 87.5446 57.6009 87.3162C57.8273 87.0879 57.9545 86.7781 57.9545 86.4552Z" fill="white"/>
</svg>
