<svg width="107" height="137" viewBox="0 0 107 137" fill="none" xmlns="http://www.w3.org/2000/svg">
<path d="M64.5734 0H17.7083C13.0118 0 8.50761 1.79607 5.18665 4.9931C1.86569 8.19012 0 12.5262 0 17.0475V119.333C0 123.854 1.86569 128.19 5.18665 131.387C8.50761 134.584 13.0118 136.38 17.7083 136.38H88.5417C93.2382 136.38 97.7424 134.584 101.063 131.387C104.384 128.19 106.25 123.854 106.25 119.333V40.1213C106.25 37.8608 105.316 35.6931 103.656 34.095L70.8333 2.49746C69.1732 0.898835 66.9215 0.000482763 64.5734 0V0ZM66.4062 29.8331V12.7856L92.9688 38.3569H75.2604C72.9121 38.3569 70.6601 37.4588 68.9996 35.8603C67.3391 34.2618 66.4062 32.0938 66.4062 29.8331ZM78.3948 66.9455L51.8323 92.5168C51.4211 92.9137 50.9325 93.2286 50.3947 93.4434C49.8568 93.6583 49.2802 93.7689 48.6979 93.7689C48.1156 93.7689 47.539 93.6583 47.0012 93.4434C46.4633 93.2286 45.9748 92.9137 45.5635 92.5168L32.2823 79.7312C31.8707 79.3349 31.5442 78.8645 31.3214 78.3468C31.0986 77.829 30.984 77.2741 30.984 76.7138C30.984 76.1534 31.0986 75.5985 31.3214 75.0807C31.5442 74.563 31.8707 74.0926 32.2823 73.6963C33.1136 72.8961 34.2411 72.4465 35.4167 72.4465C35.9988 72.4465 36.5752 72.5569 37.113 72.7713C37.6508 72.9858 38.1394 73.3001 38.551 73.6963L48.6979 83.4731L72.126 60.9107C72.9573 60.1105 74.0848 59.6609 75.2604 59.6609C76.436 59.6609 77.5635 60.1105 78.3948 60.9107C79.2261 61.711 79.6931 62.7964 79.6931 63.9281C79.6931 65.0599 79.2261 66.1453 78.3948 66.9455Z" fill="white"/>
</svg>
