<svg width="115" height="148" viewBox="0 0 115 148" fill="none" xmlns="http://www.w3.org/2000/svg">
<path d="M0 0H55.0176C66.2981 0 75.9912 1.68869 84.0969 5.06608C92.2702 8.44347 98.5521 13.442 102.943 20.0617C107.333 26.6814 109.529 34.8209 109.529 44.4802C109.529 52.3833 108.178 59.1718 105.476 64.8458C102.841 70.4523 99.0925 75.1468 94.2291 78.9295C89.4332 82.6446 82.9411 85.3274 82.9411 85.3274L67.3621 92.9119H30.3965V69.2026H55.2203C60.5565 69.2026 64.9809 68.257 68.4934 66.3656C72.0059 64.4743 74.6402 61.8399 76.3965 58.4626C78.2203 55.0852 79.1322 51.1674 79.1322 46.7093C79.1322 41.9809 78.254 37.8943 76.4978 34.4493C74.7416 31.0044 72.0734 28.37 68.4934 26.5463C64.9134 24.7225 60.4214 23.8106 55.0176 23.8106H30.3965V147.524H0V0ZM82.4758 147.524L53.1031 92.9119H67.3621L82.9411 85.3274L115 146.106V147.524H82.4758Z" fill="white"/>
</svg>
